# xmcd CD database file
#
# Track frame offsets:
#	150
#	18585
#	39056
#	47340
#	65725
#
# Disc length: 1145 seconds
#
# Revision: 0
# Processed by: cddbd v1.5.1PL2 Copyright (c) Steve Scherf et al.
# Submitted via: CDex 1.51
#
DISCID=35047705
DTITLE=川嶋あい - 見えない翼
DYEAR=2006
DGENRE=JPop
TTITLE0=見えない翼
TTITLE1=エンジェル
TTITLE2=サンキュー! -motif-
TTITLE3=見えない翼 (inst)
TTITLE4=エンジェル (inst)
EXTD=YEAR: 2006
EXTT0=
EXTT1=
EXTT2=
EXTT3=
EXTT4=
PLAYORDER=
